<?xml version="1.0" standalone="no"?>
<!DOCTYPE svg PUBLIC "-//W3C//DTD SVG 20010904//EN"
 "http://www.w3.org/TR/2001/REC-SVG-20010904/DTD/svg10.dtd">
<svg version="1.0" xmlns="http://www.w3.org/2000/svg"
 width="700.000000pt" height="700.000000pt" viewBox="0 0 700.000000 700.000000"
 preserveAspectRatio="xMidYMid meet">
<metadata>
Created by potrace 1.14, written by Peter Selinger 2001-2017
</metadata>
<g transform="translate(0.000000,700.000000) scale(0.100000,-0.100000)"
fill="#000000" stroke="none">
<path d="M3145 6160 c-4 -6 -10 -8 -14 -6 -3 3 -6 -10 -6 -27 0 -18 -4 -38 -9
-44 -5 -8 -4 -13 3 -13 9 0 9 -5 1 -20 -7 -12 -7 -20 -1 -20 5 0 7 -10 5 -22
-3 -13 -5 -29 -5 -35 1 -7 1 -20 1 -28 0 -32 0 -41 3 -70 2 -16 -1 -36 -6 -42
-6 -8 -6 -13 1 -13 7 0 8 -10 2 -30 -5 -16 -5 -32 -1 -34 9 -6 7 -48 -3 -64
-4 -7 -3 -12 2 -12 5 0 7 -15 5 -32 -4 -43 -4 -46 -1 -90 2 -21 0 -38 -5 -38
-4 0 -5 -6 -1 -12 11 -18 12 -48 2 -48 -5 0 -6 -6 -1 -12 11 -18 11 -81 0 -95
-5 -7 -6 -13 -1 -13 5 0 9 -11 9 -25 0 -14 -4 -25 -8 -25 -5 0 -5 -5 -1 -12
11 -17 11 -58 1 -58 -4 0 -5 -5 -1 -12 12 -19 12 -88 0 -88 -6 0 -6 -4 1 -11
7 -7 8 -20 3 -34 -4 -12 -4 -28 0 -35 5 -8 4 -22 -1 -31 -5 -10 -5 -20 0 -23
8 -5 6 -57 -3 -82 -2 -6 0 -17 4 -24 5 -8 4 -22 -1 -31 -5 -10 -5 -20 0 -23 8
-5 6 -57 -3 -82 -2 -6 0 -17 4 -24 5 -8 4 -22 -1 -31 -5 -10 -5 -20 0 -23 8
-5 6 -57 -3 -82 -2 -6 0 -17 4 -24 5 -8 4 -22 -1 -31 -5 -10 -5 -20 0 -23 4
-3 7 -20 4 -38 -4 -37 -4 -48 0 -98 2 -19 -1 -41 -6 -47 -6 -8 -6 -13 0 -13
11 0 10 -50 -1 -68 -4 -7 -3 -12 2 -12 10 0 9 -50 -2 -68 -4 -7 -3 -12 3 -12
5 0 7 -10 5 -22 -3 -13 -5 -27 -5 -33 6 -66 6 -82 -2 -92 -6 -8 -6 -13 0 -13
11 0 10 -50 -1 -68 -4 -7 -3 -12 2 -12 10 0 9 -50 -2 -68 -4 -7 -3 -12 2 -12
7 0 9 -79 2 -87 -3 -4 -3 -52 0 -58 7 -14 5 -31 -3 -42 -5 -8 -6 -13 -1 -13
12 0 11 -111 0 -129 -7 -11 -6 -12 5 -6 12 8 12 6 0 -8 -7 -9 -9 -17 -4 -17
11 0 11 -39 0 -57 -4 -6 -4 -14 1 -16 6 -5 9 -127 2 -134 -3 -4 -3 -42 0 -45
8 -9 3 -144 -5 -150 -7 -5 -6 -8 1 -8 9 0 12 -70 4 -105 -1 -5 -1 -12 0 -15 1
-3 3 -22 6 -43 6 -58 50 -127 81 -127 7 0 13 -4 13 -10 0 -5 7 -10 15 -10 8 0
15 -5 15 -11 0 -5 5 -7 10 -4 6 3 10 1 10 -4 0 -6 7 -11 15 -11 9 0 18 -7 21
-15 4 -8 10 -12 15 -9 5 3 9 0 9 -7 0 -7 3 -10 6 -6 4 3 13 -1 21 -9 8 -8 18
-12 22 -10 4 3 14 -4 21 -15 8 -10 22 -19 32 -19 10 0 18 -4 18 -10 0 -5 6
-10 14 -10 8 0 16 -3 18 -7 4 -10 57 -42 81 -50 9 -3 17 -9 17 -14 0 -5 5 -9
11 -9 6 0 22 -9 36 -20 14 -11 29 -18 33 -15 4 3 10 -2 14 -10 3 -8 12 -15 21
-15 8 0 15 -4 15 -10 0 -5 9 -10 21 -10 11 0 17 -4 14 -10 -3 -5 1 -10 9 -10
8 0 22 -7 30 -16 9 -8 16 -12 16 -7 0 4 4 4 8 -2 9 -12 74 -37 67 -25 -3 5 -1
11 4 14 5 4 9 60 9 125 0 66 3 124 6 130 4 6 4 11 -1 11 -12 0 -10 224 2 232
7 5 7 8 0 8 -11 0 -11 212 0 229 3 6 2 11 -2 11 -12 0 -10 64 2 72 7 5 7 8 0
8 -11 0 -11 452 0 470 3 5 3 10 -2 10 -4 0 -8 20 -8 45 0 25 4 45 8 45 5 0 5
5 1 11 -10 17 -10 129 1 129 7 0 7 3 0 8 -6 4 -10 55 -10 117 0 62 4 113 10
117 7 5 7 8 0 8 -6 0 -10 43 -10 110 0 60 4 110 8 110 5 0 5 5 1 12 -10 16
-11 68 -1 68 5 0 5 5 1 11 -8 14 -8 135 1 149 3 5 2 10 -2 10 -5 0 -9 9 -9 20
0 11 4 20 9 20 5 0 4 7 -3 15 -9 11 -9 15 -1 15 7 0 9 5 5 11 -4 6 -6 39 -5
73 0 33 1 108 0 166 -1 58 -1 112 -1 120 1 8 1 145 1 304 0 199 -3 294 -11
303 -6 7 -8 16 -5 20 11 11 -85 93 -108 93 -8 0 -15 4 -15 8 0 4 -25 21 -55
36 -30 16 -52 34 -48 39 3 6 1 7 -5 3 -6 -3 -17 0 -25 8 -8 8 -18 12 -22 8 -3
-4 -11 1 -16 11 -6 9 -14 15 -20 12 -5 -4 -9 -1 -9 4 0 6 -6 11 -13 11 -7 0
-22 8 -33 18 -11 9 -26 18 -34 20 -8 2 -17 7 -20 10 -6 9 -38 29 -70 44 -14 7
-27 15 -30 19 -3 3 -19 12 -37 19 -17 8 -29 18 -27 22 3 4 -4 8 -15 8 -10 0
-21 4 -23 9 -1 5 -10 11 -18 13 -8 2 -21 9 -28 16 -8 7 -18 10 -23 7 -5 -4 -9
-1 -9 4 0 14 -17 14 -25 1z"/>
<path d="M2330 5248 c0 -6 -3 -9 -6 -6 -3 4 -17 0 -31 -7 -15 -8 -30 -12 -34
-10 -4 3 -10 -2 -13 -11 -3 -8 -10 -13 -15 -10 -12 8 -61 -14 -61 -27 0 -6 -3
-7 -7 -4 -3 4 -17 0 -31 -9 -13 -9 -21 -11 -18 -5 5 7 1 9 -8 5 -9 -3 -16 -10
-16 -15 0 -5 -8 -9 -18 -9 -25 0 -82 -29 -82 -41 0 -6 -4 -8 -9 -4 -12 7 -61
-15 -61 -27 0 -5 -4 -7 -9 -4 -4 3 -27 -3 -49 -14 -23 -11 -46 -20 -52 -20 -6
0 -9 -4 -5 -9 3 -6 -4 -8 -15 -6 -11 2 -20 -1 -20 -6 0 -6 -4 -7 -10 -4 -5 3
-10 2 -10 -3 0 -5 -20 -15 -45 -22 -25 -7 -45 -17 -45 -21 0 -5 -4 -9 -9 -9
-5 0 -30 -9 -55 -20 -26 -11 -48 -20 -51 -20 -3 0 -21 -9 -41 -20 -19 -11 -39
-18 -45 -15 -5 4 -9 1 -9 -6 0 -7 -3 -10 -6 -6 -3 3 -15 -3 -26 -13 -11 -10
-26 -16 -34 -13 -8 3 -14 0 -14 -7 0 -6 -5 -8 -10 -5 -6 3 -13 0 -16 -9 -3 -8
-12 -12 -20 -9 -7 3 -21 -2 -30 -11 -8 -9 -20 -14 -25 -11 -5 4 -9 1 -9 -4 0
-6 -3 -10 -7 -9 -14 4 -53 -13 -53 -23 0 -5 -3 -8 -7 -8 -19 3 -36 -2 -30 -8
4 -3 2 -12 -4 -20 -6 -7 -8 -13 -3 -13 4 0 -1 -7 -12 -15 -11 -8 -14 -15 -7
-15 15 0 13 -21 -2 -32 -6 -5 -6 -8 1 -8 12 0 10 -102 -1 -121 -4 -5 -2 -9 4
-9 10 0 7 -31 -4 -50 -3 -6 -1 -10 5 -10 7 0 8 -6 2 -17 -5 -10 -8 -134 -8
-275 1 -142 -2 -258 -6 -258 -4 0 -5 -7 -2 -15 4 -8 1 -15 -6 -15 -6 0 -8 -5
-3 -12 10 -18 11 -98 1 -104 -7 -4 -3 -16 14 -45 1 -3 -3 -13 -11 -22 -7 -10
-10 -17 -5 -17 5 0 9 -18 9 -40 0 -22 -4 -40 -9 -40 -6 0 -5 -5 1 -11 8 -8 8
-20 3 -34 -5 -13 -6 -25 -4 -28 10 -10 11 -57 1 -57 -5 0 -5 -5 2 -13 8 -10 7
-17 -1 -25 -9 -9 -9 -12 0 -12 9 0 10 -5 4 -17 -5 -10 -9 -103 -10 -208 0
-279 -4 -349 -16 -357 -7 -5 -7 -8 -1 -8 12 0 12 -210 1 -229 -4 -6 -3 -11 2
-11 9 0 9 -67 -1 -76 -3 -4 -2 -17 3 -30 6 -14 6 -26 -1 -29 -5 -4 -6 -12 -2
-18 12 -19 12 -36 2 -43 -6 -3 -5 -11 2 -20 9 -11 8 -14 -2 -14 -11 0 -11 -2
1 -10 8 -5 10 -10 4 -10 -13 0 -16 -260 -3 -311 10 -39 69 -99 99 -102 11 -1
20 -7 20 -15 0 -7 4 -11 9 -7 6 3 14 -3 20 -12 6 -10 11 -14 11 -10 0 5 13 -1
29 -12 15 -11 31 -18 35 -14 3 3 6 2 6 -4 0 -5 18 -18 40 -29 22 -10 40 -23
40 -27 0 -5 5 -5 10 -2 6 3 10 1 10 -5 0 -6 5 -8 10 -5 6 3 10 -1 10 -9 0 -10
6 -13 15 -10 8 4 15 1 15 -5 0 -6 7 -11 15 -11 8 0 15 -4 15 -10 0 -5 5 -10
11 -10 6 0 25 -10 42 -22 18 -13 27 -16 22 -7 -4 7 2 4 14 -8 12 -13 28 -23
36 -23 7 0 15 -4 17 -9 2 -5 9 -11 17 -13 7 -2 24 -13 37 -26 13 -13 29 -20
34 -17 6 3 10 1 10 -6 0 -7 3 -10 6 -6 4 3 21 -4 38 -16 42 -30 66 -45 96 -59
14 -7 40 -23 59 -35 18 -13 38 -20 44 -16 5 3 7 2 4 -3 -3 -6 14 -20 39 -33
24 -13 44 -28 44 -32 0 -5 7 -6 15 -3 8 4 15 1 15 -6 0 -6 5 -8 10 -5 6 3 10
3 10 -2 0 -8 59 -46 73 -47 5 -1 15 -9 22 -19 7 -10 15 -17 17 -16 8 5 48 -13
48 -22 0 -6 4 -8 9 -4 6 3 14 -3 20 -12 6 -10 11 -15 11 -10 0 4 18 -4 40 -18
22 -14 42 -25 46 -25 3 0 12 -7 21 -15 8 -8 19 -13 24 -10 5 4 9 -1 9 -10 0
-11 5 -15 15 -11 8 3 15 2 15 -2 0 -5 16 -14 35 -22 19 -7 32 -17 29 -22 -3
-4 4 -8 15 -8 12 0 21 -4 21 -9 0 -10 60 -37 73 -33 5 1 6 -2 2 -8 -3 -5 1
-10 9 -10 9 0 16 -4 16 -10 0 -5 6 -10 14 -10 7 0 19 -7 26 -15 7 -8 16 -12
21 -9 5 3 9 0 9 -5 0 -6 3 -10 8 -10 20 3 32 -2 32 -16 0 -8 3 -14 8 -13 13 4
52 -13 52 -23 0 -5 7 -9 15 -9 8 0 15 -5 15 -11 0 -5 4 -8 9 -4 5 3 16 -2 24
-10 9 -8 20 -15 26 -15 6 0 11 -5 11 -11 0 -5 4 -8 9 -4 6 3 14 -3 20 -12 6
-10 11 -15 11 -10 0 4 18 -4 40 -18 22 -14 44 -25 50 -25 5 0 10 -3 10 -7 0
-5 18 -17 40 -27 22 -11 40 -23 40 -28 0 -5 5 -6 10 -3 6 3 10 1 10 -4 0 -6 9
-11 21 -11 11 0 17 -4 14 -10 -3 -5 3 -10 14 -10 12 0 21 -4 21 -10 0 -5 7
-10 15 -10 8 0 15 -4 15 -9 0 -5 11 -12 25 -15 14 -4 23 -11 20 -15 -3 -5 3
-8 12 -7 10 2 29 -8 43 -21 14 -13 31 -21 38 -18 6 2 12 0 12 -5 0 -5 18 -8
40 -8 22 0 40 5 40 10 0 5 5 6 10 3 6 -3 10 -1 10 5 0 6 5 8 10 5 6 -3 10 -1
10 5 0 6 4 9 9 5 6 -3 14 2 19 11 5 9 12 15 15 15 18 -3 26 1 47 19 12 11 27
17 31 14 5 -3 9 -1 9 5 0 6 11 13 25 17 14 3 22 10 19 15 -3 5 1 9 9 9 8 0 26
9 39 20 14 10 28 17 30 14 3 -2 11 2 18 11 7 8 19 15 27 15 7 0 16 7 19 15 4
8 10 12 15 9 5 -3 9 0 9 5 0 6 12 11 26 11 14 0 23 4 20 9 -3 5 8 14 24 20 17
5 30 15 30 20 0 6 9 11 20 11 11 0 20 5 20 11 0 5 4 8 9 4 6 -3 14 3 20 12 6
10 11 14 11 9 0 -6 7 -1 16 10 8 10 12 12 8 4 -5 -10 0 -9 14 4 12 11 22 15
22 10 0 -5 5 -2 10 6 5 8 15 15 22 15 7 1 12 7 10 14 -1 7 2 10 7 7 5 -3 25 5
44 18 19 13 37 22 40 20 2 -3 10 2 17 11 7 8 19 15 26 15 8 0 14 5 14 10 0 6
7 10 15 10 8 0 15 5 15 11 0 5 4 8 9 5 5 -3 14 1 21 9 7 8 16 12 21 9 5 -3 9
2 9 10 0 8 6 13 13 10 7 -2 22 4 32 14 11 10 37 26 57 35 21 10 38 22 38 28 0
6 5 7 11 3 6 -3 14 -2 18 3 9 13 135 88 144 85 4 -1 7 3 7 8 0 6 7 10 15 10 8
0 15 5 15 11 0 5 5 7 10 4 6 -3 10 -1 10 4 0 6 6 11 14 11 8 0 16 7 20 15 3 8
11 15 18 15 9 0 8 -3 -2 -10 -11 -7 -12 -10 -2 -10 8 0 16 9 19 19 3 12 11 17
19 14 8 -3 16 2 20 10 3 9 11 14 19 11 7 -3 15 2 19 11 3 9 10 13 16 10 5 -3
10 -1 10 5 0 6 5 8 10 5 6 -3 10 -1 10 4 0 6 7 11 15 11 8 0 15 5 15 10 0 6 7
10 15 10 8 0 15 5 15 11 0 5 4 8 8 5 5 -3 18 4 30 14 12 11 25 20 30 20 5 0
15 7 22 15 7 8 19 15 27 15 8 0 30 12 49 26 19 15 37 24 41 21 3 -4 13 1 22
11 9 10 31 25 49 33 17 7 32 18 32 22 0 5 5 5 10 2 6 -3 10 -1 10 5 0 7 7 9
16 6 8 -3 12 -2 9 4 -3 5 11 18 32 27 21 10 40 21 41 26 2 4 10 7 18 7 8 0 17
6 20 14 3 8 12 12 20 9 8 -3 14 0 14 6 0 6 7 11 15 11 8 0 15 5 15 10 0 6 6
10 14 10 7 0 19 7 26 15 7 8 16 13 20 10 4 -2 16 5 28 15 12 11 28 20 37 20 8
0 15 4 15 8 0 5 16 16 35 25 19 9 35 22 35 27 0 6 4 9 10 5 13 -8 50 17 50 34
0 8 3 11 7 8 10 -10 37 34 38 63 1 14 5 31 9 38 4 7 4 12 -1 12 -4 0 -8 59 -8
130 1 72 -2 130 -5 130 -8 0 -5 43 4 58 4 7 2 12 -4 12 -7 0 -8 6 -2 18 5 9 6
26 1 37 -11 29 -11 37 3 29 7 -5 8 -3 4 5 -10 16 -11 115 -2 130 4 6 4 11 -1
11 -4 0 -8 33 -9 73 -5 419 -9 549 -16 553 -5 3 -4 12 3 20 9 11 9 14 -1 14
-10 0 -10 3 0 15 6 8 8 20 4 27 -10 16 -13 48 -4 48 9 0 6 32 -4 48 -4 7 -2
12 5 12 10 0 10 3 2 11 -7 7 -8 21 -3 40 5 18 5 27 -1 24 -12 -8 -7 38 6 47 7
5 7 8 0 8 -6 0 -10 39 -10 98 0 53 -3 107 -7 120 -5 13 -3 22 3 22 6 0 8 4 4
9 -3 6 -6 97 -7 203 0 106 -4 203 -9 214 -4 13 -3 26 4 33 8 8 8 11 -1 11 -9
0 -10 5 -4 16 5 8 6 36 2 60 -4 25 -3 47 2 50 4 3 5 10 1 17 -9 15 -10 98 0
104 4 3 3 11 -4 19 -9 11 -9 17 1 29 7 8 8 15 3 15 -5 0 -9 19 -9 43 0 51 -22
105 -46 113 -10 3 -18 10 -18 15 0 6 -4 7 -10 4 -5 -3 -10 -1 -10 6 0 7 -3 9
-6 6 -4 -3 -16 -1 -28 5 -11 7 -24 11 -28 10 -5 -1 -8 2 -8 8 0 5 -7 7 -15 4
-8 -4 -15 -1 -15 6 0 7 -7 10 -15 6 -8 -3 -15 -2 -15 2 0 10 -61 35 -77 33 -7
-1 -13 3 -13 9 0 6 -4 9 -9 5 -5 -3 -15 1 -23 8 -7 8 -21 13 -31 11 -9 -1 -17
2 -17 7 0 6 -4 8 -9 5 -5 -4 -11 -2 -13 4 -1 5 -13 11 -26 13 -13 2 -32 11
-42 20 -12 10 -22 12 -26 6 -3 -6 -11 -3 -20 8 -7 10 -14 14 -14 8 0 -5 -4 -4
-8 2 -5 7 -20 14 -35 15 -15 1 -27 8 -27 16 0 7 -5 10 -10 7 -6 -4 -16 -2 -23
3 -7 5 -30 15 -52 22 -22 7 -44 16 -49 21 -6 5 -18 9 -28 9 -10 0 -18 4 -18 9
0 5 -7 12 -16 15 -8 3 -12 2 -9 -4 3 -6 -1 -7 -9 -4 -9 3 -16 10 -16 16 0 5
-4 7 -9 3 -5 -3 -12 -1 -16 5 -4 6 -11 8 -16 5 -5 -4 -9 -2 -9 2 0 5 -20 15
-45 22 -25 7 -42 18 -39 23 4 6 -2 8 -15 3 -13 -4 -21 -2 -21 5 0 6 -4 8 -10
5 -5 -3 -10 -2 -10 2 0 5 -10 9 -22 10 -11 1 -25 8 -29 15 -4 7 -11 9 -15 5
-4 -4 -14 -1 -23 7 -16 13 -90 42 -78 30 4 -4 -3 -15 -14 -25 -19 -16 -20 -19
-5 -25 9 -3 13 -10 10 -15 -3 -5 -2 -8 3 -7 11 4 73 -34 73 -45 0 -4 4 -6 9
-2 5 3 12 -4 16 -15 3 -11 9 -19 13 -17 8 2 53 -28 49 -34 -1 -2 0 -3 2 -1 2
1 13 -5 23 -15 10 -9 18 -12 18 -7 0 5 9 -4 19 -19 10 -16 22 -28 26 -27 4 1
17 -7 30 -18 13 -11 26 -18 29 -15 3 4 6 -1 6 -10 0 -9 3 -16 8 -16 19 3 33
-2 27 -11 -3 -5 1 -10 9 -10 9 0 16 -8 16 -17 0 -15 2 -16 10 -3 8 13 10 12
10 -2 0 -10 7 -18 15 -18 8 0 15 -4 15 -10 0 -5 5 -10 10 -10 6 0 22 -10 36
-22 56 -51 63 -56 83 -63 12 -3 21 -13 21 -21 0 -8 9 -14 20 -14 11 0 20 -6
20 -14 0 -8 8 -17 18 -20 16 -5 67 -76 67 -94 0 -4 4 -13 9 -21 7 -10 6 -12
-3 -6 -10 6 -11 3 -1 -14 8 -16 8 -26 1 -35 -6 -7 -8 -15 -5 -19 10 -9 11 -68
2 -73 -5 -3 -4 -12 3 -20 6 -8 7 -14 2 -14 -11 0 -11 -36 0 -46 4 -4 2 -13 -4
-20 -7 -8 -7 -14 1 -19 8 -5 8 -11 -1 -21 -9 -11 -9 -14 1 -14 9 0 10 -3 1
-13 -6 -8 -8 -17 -4 -21 10 -10 11 -46 1 -46 -5 0 -4 -10 3 -21 8 -15 8 -19 0
-15 -8 5 -8 0 -1 -18 6 -18 6 -26 -1 -26 -6 0 -7 -6 0 -17 5 -9 5 -26 1 -38
-5 -12 -4 -28 0 -35 5 -8 5 -21 1 -29 -9 -19 -8 -32 2 -48 5 -7 4 -13 -1 -13
-5 0 -9 -7 -9 -15 0 -8 5 -15 10 -15 5 0 4 -7 -3 -15 -10 -12 -10 -15 0 -15 9
0 9 -4 2 -12 -6 -8 -9 -152 -8 -395 0 -211 -1 -383 -4 -383 -3 0 -5 -66 -5
-148 0 -81 -3 -154 -7 -163 -4 -9 -4 -19 -1 -23 8 -8 7 -171 -1 -185 -4 -5 -3
-12 2 -15 9 -5 9 -47 -1 -63 -4 -7 -3 -14 3 -18 7 -4 7 -12 0 -24 -5 -10 -6
-21 -3 -25 3 -3 1 -6 -6 -6 -7 0 -10 -4 -6 -9 3 -6 -1 -13 -9 -18 -8 -4 -14
-12 -13 -18 1 -5 -14 -18 -33 -27 -19 -10 -30 -18 -25 -18 6 0 -10 -10 -35
-22 -25 -12 -47 -25 -50 -28 -5 -6 -42 -22 -47 -21 -2 1 -12 -8 -23 -19 -11
-11 -27 -20 -36 -20 -9 0 -12 -5 -8 -12 5 -7 2 -9 -9 -5 -9 3 -18 -1 -21 -10
-4 -9 -9 -13 -12 -10 -4 3 -12 1 -20 -6 -33 -29 -44 -37 -44 -31 0 3 -7 1 -15
-6 -8 -7 -15 -9 -15 -4 0 5 -7 -2 -16 -14 -8 -12 -20 -20 -25 -17 -5 4 -9 1
-9 -6 0 -7 -3 -10 -6 -6 -4 3 -12 1 -20 -6 -33 -30 -42 -35 -48 -30 -3 4 -6 1
-6 -6 0 -7 -4 -10 -8 -7 -11 6 -93 -50 -84 -58 3 -4 -1 -4 -10 -1 -9 4 -19 1
-23 -4 -3 -6 -12 -8 -18 -5 -7 4 -9 3 -5 -1 9 -9 -62 -56 -73 -49 -4 2 -9 -2
-12 -9 -3 -6 -27 -23 -53 -37 -54 -28 -75 -44 -69 -54 3 -3 0 -2 -7 4 -8 6
-17 5 -27 -5 -23 -23 -86 -62 -110 -70 -12 -3 -21 -10 -21 -14 0 -4 -18 -15
-40 -25 -22 -10 -40 -22 -40 -27 0 -6 -5 -7 -10 -4 -6 3 -13 -1 -16 -9 -3 -9
-10 -13 -15 -11 -4 3 -17 -3 -29 -15 -11 -11 -24 -20 -30 -20 -5 0 -10 -5 -10
-11 0 -5 -5 -7 -11 -3 -6 3 -14 2 -18 -3 -7 -12 -129 -83 -141 -83 -5 0 -12
-5 -16 -12 -5 -7 -2 -8 7 -3 8 5 11 4 6 0 -4 -5 -18 -10 -30 -12 -12 -2 -23
-8 -25 -13 -2 -6 -10 -10 -18 -10 -8 0 -14 -4 -14 -9 0 -5 -13 -14 -30 -20
-16 -5 -30 -15 -30 -20 0 -6 -3 -10 -7 -10 -20 3 -34 -2 -28 -11 3 -5 -2 -10
-13 -10 -10 0 -29 -9 -42 -20 -12 -11 -27 -17 -31 -14 -5 3 -9 -2 -9 -11 0 -9
-4 -13 -10 -10 -5 3 -10 1 -10 -5 0 -6 -4 -9 -9 -5 -5 3 -12 1 -16 -5 -4 -6
-11 -8 -16 -5 -5 4 -9 1 -9 -5 0 -20 -103 -9 -129 14 -14 12 -21 15 -17 6 4
-8 -2 -4 -13 9 -12 13 -21 20 -21 17 0 -4 -13 1 -30 11 -16 9 -30 21 -30 26 0
4 -4 6 -9 3 -5 -3 -14 1 -21 9 -7 8 -21 15 -32 15 -10 0 -17 4 -14 8 3 5 -10
15 -29 22 -19 8 -35 17 -35 22 0 4 -7 8 -15 8 -9 0 -18 6 -21 14 -3 8 -14 13
-25 11 -11 -2 -17 0 -14 4 2 5 -16 19 -40 32 -25 13 -45 28 -45 32 0 5 -5 5
-10 2 -6 -3 -13 0 -16 9 -3 8 -12 12 -20 9 -8 -3 -14 -1 -14 4 0 6 -18 18 -40
29 -22 10 -40 22 -40 27 0 4 -7 7 -16 7 -8 0 -12 5 -9 10 3 6 -2 10 -13 10
-11 0 -31 9 -46 21 -14 11 -26 17 -26 12 0 -4 -4 -3 -8 3 -4 6 -47 35 -97 65
-49 29 -92 57 -93 61 -2 5 -8 6 -13 2 -5 -3 -9 0 -9 5 0 6 -7 11 -15 11 -9 0
-27 11 -40 24 -13 13 -26 22 -29 19 -2 -3 -25 9 -49 26 -24 16 -47 27 -51 24
-3 -4 -6 2 -6 12 0 10 -3 15 -6 12 -8 -7 -58 19 -88 45 -10 10 -22 15 -26 13
-4 -3 -13 2 -20 10 -7 8 -19 15 -27 15 -8 0 -11 5 -8 10 3 6 -3 10 -15 10 -11
0 -23 7 -26 15 -4 8 -10 12 -15 9 -5 -3 -9 0 -9 6 0 6 -4 8 -10 5 -6 -3 -10
-3 -10 2 0 4 -13 14 -29 21 -16 7 -39 21 -51 32 -12 11 -27 17 -31 14 -5 -3
-9 0 -9 5 0 6 -7 11 -15 11 -8 0 -15 5 -15 10 0 6 -9 10 -21 10 -11 0 -17 5
-14 10 3 6 -1 10 -9 10 -9 0 -16 5 -16 10 0 6 -3 9 -7 8 -15 -3 -62 25 -57 34
3 5 2 8 -3 7 -21 -4 -44 2 -39 10 3 5 -5 11 -17 15 -31 7 -59 34 -76 71 -7 17
-17 38 -22 47 -5 10 -5 19 0 23 10 6 9 31 -2 41 -3 4 -2 15 4 25 7 13 6 19 -1
19 -7 0 -8 6 -1 18 5 10 6 24 1 32 -5 8 -5 21 0 31 5 9 7 19 4 22 -5 4 -8 161
-4 182 1 6 1 15 0 20 -1 6 -4 85 -6 177 -1 92 -5 172 -9 178 -3 5 -2 10 3 10
4 0 6 23 2 50 -4 28 -4 50 0 50 4 0 4 23 0 50 -4 28 -3 50 2 50 5 0 4 9 -2 20
-8 15 -8 20 1 20 8 0 9 4 0 13 -8 10 -7 17 1 25 7 7 8 12 3 12 -6 0 -10 43 -9
100 1 55 -3 103 -8 106 -4 3 -5 11 -1 17 10 17 11 67 1 67 -5 0 -6 4 -3 10 11
18 14 50 5 50 -6 0 -6 9 -1 23 5 13 6 30 1 37 -4 7 -4 26 0 41 5 17 5 31 -1
34 -5 4 -5 14 1 26 8 13 7 19 0 19 -7 0 -8 6 -1 19 6 10 7 21 4 25 -9 8 -8 70
1 84 4 7 4 12 -1 12 -9 0 -10 76 -1 86 4 3 3 17 -2 30 -7 16 -6 24 1 24 8 0 8
4 2 13 -16 20 -13 255 3 268 8 6 14 18 14 26 0 17 53 73 69 73 6 0 11 7 11 16
0 8 5 12 10 9 6 -3 13 1 16 9 3 9 10 14 14 11 4 -3 10 2 14 10 3 8 13 15 21
15 9 0 13 5 10 10 -3 6 0 10 8 10 8 0 18 7 21 16 3 8 10 13 15 9 5 -3 12 4 16
15 4 11 10 18 15 15 5 -3 15 3 22 15 7 11 18 20 25 20 7 0 17 8 22 18 6 9 11
14 11 10 0 -4 18 9 39 28 21 20 43 37 47 37 5 1 21 15 37 31 15 17 27 27 27
24 0 -4 11 3 24 15 51 48 78 67 87 62 5 -4 6 1 3 10 -4 9 -3 15 2 14 22 -4 34
2 34 16 0 8 4 14 8 13 9 -3 64 40 75 59 9 14 -9 53 -23 53 -6 0 -10 -5 -10
-12z"/>
</g>
</svg>
